<?xml version="1.0" standalone="no"?>
<!DOCTYPE svg PUBLIC "-//W3C//DTD SVG 20010904//EN"
 "http://www.w3.org/TR/2001/REC-SVG-20010904/DTD/svg10.dtd">
<svg version="1.0" xmlns="http://www.w3.org/2000/svg"
 width="1200.000000pt" height="1200.000000pt" viewBox="0 0 1200.000000 1200.000000"
 preserveAspectRatio="xMidYMid meet">
<metadata>
Created by potrace 1.14, written by Peter Selinger 2001-2017
</metadata>
<g transform="translate(0.000000,1200.000000) scale(0.100000,-0.100000)"
fill="#000000" stroke="none">
<path d="M10698 10217 c-64 -67 -144 -151 -178 -187 -34 -36 -102 -107 -152
-158 -80 -84 -148 -184 -148 -218 0 -7 -5 -14 -11 -16 -5 -2 -11 -10 -13 -18
-2 -8 -36 -82 -76 -165 -40 -82 -76 -159 -81 -170 -5 -11 -13 -27 -18 -35 -18
-27 -63 -129 -61 -136 1 -4 -2 -10 -7 -13 -11 -7 -53 -96 -53 -111 0 -5 -4
-10 -9 -10 -5 0 -13 -10 -17 -22 -4 -13 -35 -81 -69 -153 -34 -71 -64 -134
-66 -140 -2 -5 -24 -50 -50 -100 l-46 -90 -178 0 -177 0 -108 -160 c-105 -155
-129 -181 -234 -255 -42 -29 -49 -34 -137 -97 -36 -27 -73 -52 -81 -58 -25
-16 -191 -134 -209 -148 -12 -10 -15 -36 -14 -147 1 -74 -3 -144 -9 -155 -11
-23 -162 -214 -183 -231 -7 -6 -13 -16 -13 -23 0 -6 -3 -11 -8 -11 -4 0 -34
-34 -66 -75 -32 -41 -61 -75 -64 -75 -4 0 -81 77 -173 171 l-168 171 -53 -11
c-105 -22 -127 -27 -199 -45 -33 -9 -61 -16 -63 -16 -1 0 -1 -45 -1 -101 1
-91 -1 -101 -19 -112 -12 -6 -25 -11 -29 -12 -4 0 -12 -7 -17 -15 -5 -8 -10
-12 -10 -9 0 3 -31 -10 -70 -30 -38 -20 -109 -56 -157 -81 -48 -24 -100 -53
-115 -63 -16 -10 -28 -15 -28 -11 0 3 -6 2 -12 -4 -14 -11 -343 -182 -352
-182 -2 0 4 17 15 38 41 80 99 206 99 215 0 6 6 18 13 26 7 9 28 50 47 91 18
41 60 131 92 198 32 68 55 129 51 135 -4 6 -13 18 -20 27 -7 8 -41 54 -76 101
-74 102 -85 113 -112 116 -11 1 -36 5 -55 8 -77 13 -216 37 -240 40 -14 2 -46
7 -72 11 -27 4 -48 5 -48 2 0 -3 -14 -43 -31 -89 -17 -46 -32 -88 -33 -94 -9
-40 -26 -64 -84 -118 -36 -34 -84 -80 -107 -102 -23 -22 -91 -86 -151 -142
-60 -56 -135 -126 -166 -156 -53 -49 -88 -66 -173 -83 -5 -1 -50 -13 -100 -27
-49 -14 -102 -28 -117 -31 -15 -4 -39 -23 -55 -44 -15 -20 -33 -43 -40 -49 -6
-7 -21 -29 -34 -50 -13 -21 -26 -40 -29 -43 -3 -3 -27 -35 -53 -72 -27 -38
-50 -68 -52 -68 -4 0 -275 273 -275 277 0 1 -21 22 -47 47 l-48 45 -7 -27 c-4
-15 -9 -39 -12 -54 -2 -15 -7 -31 -10 -37 -3 -5 -9 -31 -12 -57 -3 -27 -8 -52
-10 -56 -3 -4 -7 -16 -9 -25 -6 -29 -56 -256 -61 -275 -26 -106 -31 -137 -26
-143 3 -3 0 -5 -7 -5 -7 0 -10 -4 -7 -8 4 -8 -60 -312 -68 -320 -4 -3 -91 86
-395 406 l-134 140 -48 -34 c-27 -19 -51 -34 -55 -34 -3 0 -20 -11 -38 -25
-18 -14 -38 -25 -44 -25 -6 0 -12 -3 -14 -7 -8 -20 -122 -86 -130 -77 -3 2
-15 7 -27 9 -13 2 -31 7 -41 10 -10 3 -27 8 -37 10 -10 2 -43 11 -73 20 -30 8
-66 17 -80 20 -14 3 -50 12 -80 20 -30 9 -64 18 -75 20 -43 10 -62 15 -120 31
-33 9 -67 18 -75 19 -8 2 -15 4 -15 5 0 2 -16 5 -57 13 -15 3 -33 9 -40 14 -7
4 -184 9 -393 10 -209 0 -388 2 -397 2 -14 1 -16 5 -8 26 5 14 7 25 4 25 -2 0
0 8 5 18 5 9 11 31 14 47 3 17 10 45 16 63 5 18 10 35 10 37 1 3 1 6 2 8 3 9
10 45 11 60 1 9 5 17 8 17 3 0 7 10 7 23 1 22 5 39 15 67 5 13 50 195 63 254
5 20 13 32 18 25 2 -2 30 -57 62 -121 33 -65 63 -118 67 -118 4 0 7 -4 6 -8
-2 -4 15 -45 37 -91 l40 -82 60 5 c33 3 69 7 80 10 39 8 140 20 153 18 15 -3
14 -7 1 59 -6 30 -13 65 -15 79 -3 14 -12 54 -20 90 -8 36 -17 79 -20 95 -5
37 -12 70 -14 70 -1 0 -3 7 -5 15 -18 87 -38 179 -41 195 -3 11 -7 29 -9 40
-3 20 -12 61 -20 100 -2 11 -9 40 -15 65 -7 25 -13 54 -14 65 -7 49 -39 181
-47 189 -5 5 -13 5 -21 -1 -7 -5 -53 -25 -101 -44 -81 -31 -90 -38 -120 -84
-17 -27 -35 -51 -39 -53 -5 -2 -8 -10 -8 -18 0 -8 -4 -14 -9 -14 -5 0 -11 -6
-13 -12 -2 -7 -34 -59 -73 -116 -38 -57 -74 -112 -80 -123 -5 -10 -13 -19 -17
-19 -5 0 -8 -4 -8 -9 0 -8 -126 -200 -148 -227 -5 -5 -15 -21 -22 -35 -7 -13
-16 -26 -19 -29 -3 -3 -40 -57 -81 -120 -41 -63 -77 -117 -80 -120 -3 -3 -21
-29 -39 -58 -20 -31 -43 -55 -57 -58 -13 -3 -24 -10 -24 -15 0 -5 -4 -9 -9 -9
-15 0 -185 -82 -192 -93 -3 -5 -10 -9 -15 -9 -5 0 -46 -18 -90 -40 l-81 -40
-71 11 c-38 6 -77 13 -84 16 -14 5 -43 -24 -228 -225 -14 -15 -65 -71 -115
-124 -49 -54 -93 -104 -98 -111 -4 -8 3 -41 17 -77 37 -98 39 -102 43 -122 2
-11 8 -25 13 -31 23 -28 13 -62 -45 -145 -33 -47 -62 -87 -66 -90 -3 -3 -14
-18 -23 -35 -9 -16 -37 -57 -61 -90 -25 -33 -49 -69 -54 -80 -5 -11 -18 -28
-28 -38 -19 -16 -19 -22 -8 -90 14 -76 18 -103 45 -270 6 -40 13 -83 16 -97 2
-14 11 -68 19 -120 20 -124 23 -145 25 -145 1 0 3 -9 4 -20 2 -17 16 -104 22
-140 1 -5 3 -12 4 -15 1 -3 3 -16 4 -30 4 -35 15 -109 23 -145 3 -16 7 -39 9
-50 2 -21 11 -72 19 -115 3 -14 7 -40 10 -57 11 -73 16 -97 20 -104 5 -7 -147
-84 -552 -281 l-162 -78 26 -73 c14 -39 30 -76 35 -82 4 -5 8 -19 8 -32 0 -13
5 -23 10 -23 6 0 10 -8 10 -17 0 -9 9 -35 19 -57 10 -23 26 -61 34 -86 9 -25
24 -67 35 -95 10 -27 49 -129 86 -225 37 -96 70 -184 75 -195 5 -11 16 -40 26
-65 9 -25 22 -56 28 -70 6 -14 11 -28 13 -32 1 -5 3 -10 4 -13 1 -3 3 -8 4
-12 1 -5 17 -46 35 -93 19 -47 60 -153 91 -236 53 -138 63 -156 106 -195 26
-24 58 -54 71 -67 25 -24 25 -24 39 33 4 17 8 35 10 40 7 30 56 222 59 235 1
8 11 44 20 80 9 36 19 76 22 90 2 14 16 66 29 115 14 50 26 98 25 107 0 13 34
28 147 64 140 46 156 50 185 57 39 9 48 24 53 93 5 75 10 129 18 214 9 100 16
174 21 240 3 36 8 94 11 130 3 36 7 81 8 101 2 20 6 40 9 45 3 5 147 9 321 9
l316 0 60 -99 c33 -54 60 -100 60 -103 0 -2 16 -29 35 -59 19 -30 35 -56 35
-58 0 -3 49 -87 97 -166 16 -25 39 -38 188 -105 44 -20 101 -47 127 -61 27
-13 50 -24 53 -24 3 0 52 -22 108 -49 127 -59 143 -65 145 -49 0 7 15 60 32
118 18 58 45 148 60 200 63 208 50 185 101 184 42 -1 154 -11 154 -14 0 0 25
-3 55 -5 30 -3 73 -7 95 -10 40 -5 101 -11 185 -20 113 -11 158 -16 195 -20
22 -3 65 -7 95 -10 80 -8 121 -15 131 -20 4 -3 8 -27 8 -53 2 -92 13 -152 30
-152 4 0 22 -12 39 -27 17 -16 44 -38 59 -50 15 -13 44 -36 63 -53 19 -16 40
-33 45 -37 6 -5 25 -20 42 -35 20 -16 42 -25 55 -23 45 7 123 16 179 21 56 4
57 4 69 -28 13 -32 30 -72 66 -153 9 -22 18 -42 18 -45 1 -4 23 -57 71 -165
56 -128 49 -110 59 -147 5 -16 12 -28 17 -28 5 0 9 -8 9 -18 0 -10 3 -22 8
-26 4 -4 8 -11 8 -14 1 -4 7 -21 14 -38 12 -27 55 -52 407 -228 l395 -197 52
25 c160 76 229 106 240 106 8 0 19 7 26 15 6 8 15 14 18 13 9 -2 55 17 115 48
27 13 52 24 57 24 5 0 69 -29 142 -64 122 -60 135 -64 155 -51 12 8 37 23 56
34 55 31 77 44 131 79 28 17 56 32 63 32 7 0 13 4 13 8 0 5 11 15 25 22 31 16
31 18 2 52 -12 15 -32 40 -44 55 -12 15 -31 39 -44 52 -18 19 -19 25 -8 32 8
5 23 9 34 10 11 0 29 2 40 4 37 7 140 24 179 31 21 3 48 8 60 10 85 18 101 16
166 -22 36 -21 67 -41 70 -44 3 -3 21 -13 40 -24 19 -10 49 -26 65 -36 17 -9
53 -20 80 -23 28 -3 61 -8 75 -11 14 -2 52 -7 85 -11 33 -3 76 -8 95 -11 19
-3 51 -6 70 -8 19 -2 51 -7 70 -10 19 -3 56 -8 83 -11 68 -7 141 -17 147 -18
3 -1 50 32 104 73 54 41 120 90 145 109 25 19 48 37 51 40 3 3 23 19 45 36 22
16 45 33 50 37 21 17 83 64 109 83 15 11 37 28 48 38 17 14 51 27 111 43 4 1
8 2 10 3 1 2 13 4 27 7 21 3 56 12 80 19 71 21 128 36 154 39 21 3 41 42 26
51 -5 3 -5 18 0 34 4 16 6 32 4 34 -5 5 -9 81 -19 397 -3 107 -8 214 -10 237
-3 42 -3 42 43 59 26 9 56 20 67 26 12 5 27 10 35 12 8 2 22 6 30 9 70 29 150
55 150 49 0 -4 4 -1 8 5 4 7 17 14 27 16 11 2 34 9 50 16 60 25 82 25 107 0
13 -13 40 -36 59 -50 19 -15 50 -41 69 -58 19 -17 47 -41 62 -53 15 -13 40
-34 56 -48 147 -128 158 -135 212 -143 70 -12 104 -19 128 -28 14 -5 27 -7 29
-5 3 3 16 1 29 -4 14 -6 35 -12 47 -14 12 -3 31 -7 42 -9 11 -3 40 -8 65 -12
25 -4 50 -10 55 -14 6 -4 26 -8 45 -9 30 -2 38 3 56 31 38 59 157 222 166 225
4 2 8 9 8 16 0 12 39 55 41 45 0 -2 2 -17 3 -34 13 -116 18 -163 21 -185 3
-22 10 -80 21 -175 2 -16 5 -50 8 -75 2 -25 7 -61 10 -80 6 -41 17 -141 21
-190 2 -19 4 -35 5 -35 1 0 3 -18 5 -40 3 -44 12 -117 21 -180 4 -22 7 -51 9
-65 1 -14 3 -28 3 -31 1 -3 79 -6 172 -6 l170 0 1 31 c1 42 5 166 14 391 13
318 11 408 -11 477 -3 9 -7 25 -9 35 -11 51 -46 212 -69 318 -24 105 -30 133
-42 180 -2 11 -10 47 -18 85 -3 14 -10 45 -16 70 -5 25 -12 56 -15 70 -5 25
-21 98 -30 135 -8 34 -16 69 -21 95 -20 108 -28 128 -68 171 -22 25 -66 74
-96 109 -30 35 -64 73 -75 86 -11 12 -31 35 -45 50 -14 16 -41 48 -61 71 l-37
42 -53 -62 c-29 -34 -61 -70 -70 -79 -10 -10 -22 -25 -26 -33 -8 -13 -15 -13
-65 0 -31 8 -67 16 -80 19 -12 3 -32 7 -43 10 -11 2 -48 11 -82 19 -35 9 -63
13 -63 10 0 -3 -6 0 -13 6 -8 6 -17 8 -20 4 -11 -10 -11 6 -3 97 7 67 10 100
21 185 9 77 16 136 20 180 2 22 7 65 11 95 4 30 8 70 8 87 1 18 3 33 6 33 3 0
6 12 6 28 2 42 13 150 24 232 5 41 12 100 15 130 4 30 8 71 11 90 3 19 7 58
10 85 7 87 23 155 35 155 5 0 9 5 9 10 0 6 9 23 19 38 38 54 75 117 73 125 -1
4 3 7 8 7 6 0 10 5 10 10 0 6 5 16 10 23 6 7 39 59 74 117 34 58 107 177 161
265 54 88 107 176 118 195 10 19 24 38 29 41 5 3 11 73 14 155 5 172 11 377
19 618 3 93 8 172 10 176 4 6 95 28 127 31 4 0 21 4 38 9 16 5 30 6 31 2 0 -4
2 -14 4 -22 14 -53 27 -108 31 -125 6 -29 11 -50 33 -142 11 -45 22 -92 25
-105 6 -29 7 -34 45 -188 16 -69 39 -165 51 -215 12 -49 35 -146 51 -215 17
-69 32 -133 35 -142 2 -10 6 -28 9 -40 30 -146 53 -208 75 -208 6 0 33 -16 60
-35 27 -19 52 -35 55 -35 3 0 11 -5 18 -10 23 -21 288 -190 297 -190 5 0 10
-3 12 -8 2 -4 28 -23 58 -42 30 -19 58 -39 62 -45 4 -5 8 -6 8 -2 0 4 10 -1
22 -13 12 -11 28 -20 35 -20 7 0 13 -5 13 -11 0 -5 5 -7 10 -4 6 3 10 2 10 -3
0 -5 12 -14 26 -21 22 -10 25 -9 20 6 -9 30 -56 206 -62 233 -3 14 -14 58 -25
99 -34 125 -105 404 -114 442 -4 22 -39 82 -59 102 -6 6 -22 29 -35 50 -13 21
-28 43 -35 50 -6 6 -36 47 -66 90 -57 81 -102 143 -120 164 -5 7 -10 15 -10
18 0 3 -6 13 -12 21 -81 96 -100 131 -101 192 -1 31 2 63 6 70 5 6 4 12 0 12
-5 0 -8 19 -6 43 2 23 3 47 3 52 -4 148 -3 245 3 245 5 0 5 5 1 12 -4 6 -7 26
-7 43 0 17 3 37 7 43 4 7 4 12 -1 12 -10 0 -10 101 1 118 4 6 4 12 -1 12 -4 0
-7 40 -7 89 1 56 -6 122 -18 177 -11 49 -23 107 -28 129 -4 22 -11 51 -14 65
-3 14 -8 34 -10 45 -2 11 -14 61 -26 110 -12 50 -23 99 -25 110 -2 11 -11 54
-20 95 -9 41 -21 95 -26 119 -5 23 -13 59 -18 80 -6 20 -13 51 -16 70 -3 19
-8 38 -11 43 -3 5 -7 21 -10 36 -2 15 -6 36 -8 47 -3 11 -5 25 -5 32 -1 7 -18
15 -38 20 -49 9 -53 10 -55 13 -2 1 -12 3 -23 4 -22 3 -77 13 -115 21 -14 3
-36 7 -49 10 -28 5 -32 8 -35 28 -1 8 -7 21 -13 28 -6 8 -14 25 -18 39 -4 14
-20 52 -35 85 -40 89 -40 90 -14 118 13 14 24 29 24 31 0 5 23 34 55 70 6 6
21 28 35 48 14 21 28 38 33 38 4 0 7 6 7 14 0 8 4 16 9 18 10 3 91 104 91 113
0 3 9 15 19 27 13 13 16 24 10 32 -20 24 -59 87 -59 96 0 6 -4 10 -10 10 -5 0
-10 4 -10 9 0 7 -102 177 -113 187 -1 2 -55 -52 -119 -119z"/>
<path d="M4427 7553 c-49 -29 -93 -53 -98 -53 -5 0 -9 -4 -9 -10 0 -5 -5 -10
-10 -10 -6 0 -36 -16 -66 -35 -30 -19 -56 -35 -58 -35 -2 0 -29 -15 -61 -34
-52 -32 -106 -77 -268 -228 l-61 -56 -1 -181 -1 -181 142 0 c117 0 143 3 148
15 3 8 1 15 -5 15 -6 0 -6 7 1 19 7 13 7 28 0 46 -5 14 -7 24 -2 22 8 -6 8 71
-1 80 -4 3 -3 13 1 22 4 9 7 29 6 44 -1 27 34 59 163 147 12 8 67 49 124 90
215 158 205 153 427 264 105 54 192 101 192 104 0 4 -107 7 -237 7 l-237 0
-89 -52z"/>
<path d="M10787 4783 c1 -43 7 -79 13 -81 5 -2 10 -10 10 -18 0 -8 5 -14 10
-14 6 0 10 -6 10 -13 0 -8 9 -22 20 -32 11 -10 20 -21 20 -25 0 -11 83 -134
92 -138 4 -2 8 -8 8 -12 0 -7 417 -643 462 -703 11 -16 17 -17 43 -6 17 7 32
13 35 14 6 2 60 24 80 32 8 3 18 5 23 5 4 -1 7 3 7 8 0 5 5 9 11 7 28 -6 14
27 -56 133 -41 62 -75 117 -75 122 0 4 -4 8 -9 8 -5 0 -12 8 -15 18 -4 10 -14
27 -24 38 -10 10 -29 37 -42 59 -22 36 -57 76 -175 200 -22 23 -83 89 -135
145 -52 57 -117 126 -145 155 -27 28 -75 79 -106 113 -31 34 -58 62 -60 62 -2
0 -3 -35 -2 -77z"/>
</g>
</svg>
