<?xml version="1.0" standalone="no"?>
<!DOCTYPE svg PUBLIC "-//W3C//DTD SVG 20010904//EN"
 "http://www.w3.org/TR/2001/REC-SVG-20010904/DTD/svg10.dtd">
<svg version="1.0" xmlns="http://www.w3.org/2000/svg"
 width="1152.000000pt" height="1152.000000pt" viewBox="0 0 1152.000000 1152.000000"
 preserveAspectRatio="xMidYMid meet">
<metadata>
Created by potrace 1.14, written by Peter Selinger 2001-2017
</metadata>
<g transform="translate(0.000000,1152.000000) scale(0.100000,-0.100000)"
fill="#000000" stroke="none">
<path d="M10303 9871 c-24 -25 -97 -102 -163 -171 -66 -68 -120 -125 -120
-126 0 -1 -43 -46 -96 -100 -70 -73 -104 -116 -126 -164 -50 -108 -58 -124
-67 -140 -5 -8 -25 -49 -44 -90 -20 -41 -65 -135 -101 -207 -36 -73 -62 -133
-58 -133 4 0 2 -4 -3 -8 -9 -6 -58 -97 -60 -112 -1 -5 -110 -229 -189 -391
l-48 -97 -169 1 -170 1 -26 -40 c-15 -21 -30 -40 -35 -42 -4 -2 -8 -10 -8 -18
0 -8 -4 -14 -9 -14 -5 0 -13 -9 -16 -20 -3 -11 -12 -26 -19 -32 -6 -7 -23 -31
-36 -53 -14 -22 -30 -47 -37 -55 -49 -62 -66 -80 -74 -80 -6 0 -15 -5 -22 -10
-25 -22 -320 -231 -340 -242 -12 -6 -24 -14 -27 -18 -3 -3 -26 -21 -52 -40
-30 -21 -48 -41 -49 -54 0 -12 -1 -75 -2 -141 l-2 -121 -35 -44 c-19 -25 -37
-47 -40 -50 -3 -3 -23 -27 -45 -55 -21 -27 -42 -52 -45 -55 -3 -3 -21 -25 -40
-50 -19 -25 -37 -47 -40 -50 -3 -3 -22 -26 -43 -52 l-37 -46 -132 134 c-73 74
-135 139 -138 144 -3 6 -20 20 -38 33 l-31 23 -143 -35 -143 -36 -3 -95 c-3
-97 -11 -120 -42 -120 -10 0 -20 -3 -22 -7 -1 -5 -32 -23 -68 -41 -36 -19
-157 -81 -270 -140 -113 -58 -215 -111 -227 -116 -13 -6 -23 -14 -23 -18 0 -5
-7 -8 -15 -8 -8 0 -35 -11 -60 -25 -25 -14 -45 -23 -45 -20 0 6 18 44 108 235
72 153 86 185 84 193 -1 4 3 7 8 7 6 0 10 5 10 10 0 6 16 43 35 83 19 39 35
76 35 81 0 5 7 17 15 26 17 18 5 39 -110 193 -53 70 -56 72 -120 82 -48 7
-128 20 -210 35 -33 6 -80 13 -105 16 l-45 4 -30 -87 c-16 -49 -29 -89 -27
-91 4 -4 -30 -66 -39 -72 -8 -5 -172 -160 -333 -313 -166 -158 -167 -159 -257
-184 -46 -13 -92 -26 -103 -28 -16 -4 -93 -25 -148 -41 -9 -3 -65 -72 -124
-155 -58 -82 -109 -149 -113 -149 -3 0 -83 79 -177 176 -95 96 -174 172 -177
167 -2 -4 -12 -42 -21 -83 -9 -41 -28 -124 -42 -185 -14 -60 -27 -123 -30
-138 -2 -16 -6 -33 -10 -38 -3 -5 -7 -24 -10 -42 -3 -27 -27 -135 -59 -272 -3
-11 -8 -33 -11 -49 -2 -16 -7 -32 -9 -35 -2 -4 -6 -27 -10 -51 -10 -68 -19
-70 -73 -13 -66 72 -266 282 -361 381 -43 45 -85 82 -91 82 -7 0 -73 -40 -148
-90 -99 -66 -144 -90 -167 -90 -17 0 -35 3 -39 7 -3 4 -17 8 -29 10 -12 1 -44
9 -72 18 -27 8 -61 17 -75 19 -14 3 -57 14 -95 25 -39 11 -81 22 -95 25 -14 3
-41 10 -60 15 -19 5 -87 23 -150 39 l-115 30 -363 -2 c-199 0 -362 1 -362 4 0
3 4 21 10 40 5 19 11 46 14 60 14 72 133 530 139 536 3 4 10 -2 14 -12 3 -10
9 -21 13 -24 3 -3 24 -41 47 -85 122 -239 147 -284 152 -281 3 2 26 7 51 10
25 3 54 8 65 10 11 2 45 7 75 11 96 12 91 1 63 128 -13 62 -27 123 -29 137 -3
14 -7 32 -9 40 -2 8 -7 31 -10 50 -3 19 -10 51 -15 70 -11 41 -39 174 -45 210
-6 34 -13 68 -19 88 -3 9 -8 31 -11 47 -9 52 -14 76 -21 98 -4 12 -8 29 -8 37
-1 8 -7 41 -14 72 -12 52 -15 57 -32 48 -22 -12 -73 -32 -80 -31 -3 0 -14 -6
-25 -13 -11 -7 -34 -17 -50 -20 -28 -7 -76 -70 -170 -224 -5 -8 -31 -46 -58
-84 -26 -37 -47 -72 -47 -76 0 -5 -9 -18 -20 -29 -10 -12 -34 -45 -52 -75 -17
-29 -35 -55 -38 -58 -3 -3 -21 -30 -40 -60 -19 -30 -38 -59 -43 -65 -24 -30
-107 -158 -107 -164 0 -4 -9 -16 -20 -26 -11 -10 -17 -22 -14 -26 3 -5 1 -9
-3 -9 -5 0 -26 -27 -48 -61 l-39 -61 -210 -104 c-196 -97 -214 -104 -256 -98
-25 3 -53 7 -62 10 -53 15 -56 13 -135 -72 -43 -47 -103 -112 -133 -144 -30
-32 -82 -89 -115 -126 -33 -37 -66 -73 -74 -81 -13 -14 -13 -15 15 -88 4 -11
8 -23 9 -27 2 -5 4 -10 5 -13 1 -3 3 -8 5 -12 1 -5 6 -20 12 -34 6 -14 17 -44
23 -66 l13 -41 -65 -94 c-36 -51 -85 -122 -109 -158 -24 -36 -47 -67 -50 -70
-17 -15 -70 -103 -71 -118 -1 -9 2 -33 5 -52 14 -74 16 -86 22 -125 3 -22 10
-65 15 -95 5 -30 12 -73 15 -95 4 -22 8 -47 10 -55 2 -8 7 -37 11 -65 3 -27 8
-59 10 -70 3 -11 7 -36 9 -55 3 -19 8 -46 11 -58 3 -13 7 -43 10 -65 3 -23 9
-62 14 -87 5 -25 12 -65 16 -90 4 -25 8 -54 9 -65 3 -19 10 -54 20 -105 3 -14
8 -45 11 -70 7 -49 9 -65 19 -127 7 -39 6 -42 -19 -49 -14 -3 -26 -10 -26 -14
0 -4 -10 -11 -23 -15 -29 -10 -16 -4 -152 -70 -66 -32 -122 -62 -123 -67 -2
-4 -10 -8 -17 -8 -8 0 -73 -29 -144 -65 -72 -36 -134 -65 -139 -65 -4 0 -13
-5 -19 -11 -11 -11 -3 -44 28 -114 10 -24 31 -79 30 -82 0 -2 8 -23 19 -47 10
-24 16 -47 13 -50 -4 -3 -1 -6 5 -6 7 0 12 -7 12 -15 0 -8 7 -29 14 -47 8 -18
34 -82 56 -143 23 -60 46 -119 50 -130 20 -46 90 -232 90 -238 0 -4 9 -26 19
-50 11 -23 33 -80 51 -127 17 -47 35 -94 40 -105 5 -11 35 -87 66 -170 31 -82
60 -158 65 -168 10 -17 135 -137 144 -137 0 0 1 10 2 23 1 12 29 130 62 262
34 132 63 249 66 260 2 11 4 21 6 23 2 2 2 5 13 52 19 84 26 96 75 110 25 7
99 31 164 52 65 21 124 38 131 38 6 0 12 12 12 28 0 31 12 178 20 237 2 22 7
74 10 115 3 41 6 91 8 110 2 19 7 74 11 122 4 48 8 96 10 105 2 10 4 30 4 44
l1 26 308 0 308 0 34 -59 c19 -33 40 -68 45 -77 6 -9 25 -43 44 -76 19 -33 41
-68 49 -77 8 -10 11 -18 7 -18 -4 0 -1 -8 7 -17 8 -10 34 -51 57 -91 41 -70
46 -75 117 -108 41 -19 109 -50 152 -71 42 -20 82 -37 87 -39 6 -1 57 -25 115
-53 58 -28 111 -51 118 -51 6 0 12 -5 12 -12 0 -17 23 7 26 27 1 8 14 54 29
103 15 48 31 101 36 117 5 17 24 80 43 140 18 61 37 109 42 108 5 0 38 -4 74
-7 36 -4 83 -9 105 -11 22 -3 65 -7 95 -10 56 -5 106 -10 195 -20 28 -3 70 -8
95 -11 25 -2 63 -6 85 -9 22 -3 65 -7 95 -10 133 -13 154 -16 158 -19 2 -2 5
-41 8 -87 5 -98 -10 -80 212 -262 81 -66 84 -68 130 -63 26 3 73 8 105 11 32
4 67 8 77 10 13 2 21 -4 26 -18 4 -12 17 -44 29 -72 24 -53 53 -122 55 -130 1
-2 15 -35 31 -72 16 -38 34 -77 38 -88 5 -11 17 -38 27 -60 10 -22 19 -42 19
-45 1 -3 9 -23 19 -45 31 -70 39 -90 42 -104 5 -25 26 -39 164 -107 74 -37
137 -71 138 -76 2 -4 10 -8 18 -8 16 0 316 -150 325 -163 3 -5 9 -8 13 -7 4 1
31 -10 60 -24 47 -22 57 -24 85 -13 17 6 31 15 31 19 0 4 5 8 11 8 12 0 22 4
181 78 59 28 109 47 112 44 3 -3 6 0 6 6 0 7 4 12 9 12 5 0 22 5 38 12 15 6
31 11 36 10 4 -1 7 2 7 8 0 20 38 8 158 -50 67 -33 125 -60 129 -60 5 0 87 48
148 88 11 6 39 22 63 34 23 12 42 26 42 30 0 4 6 8 13 8 6 0 22 8 35 18 l22
17 -52 65 c-29 36 -59 71 -66 79 -12 13 -12 16 5 22 19 7 61 15 123 24 14 2
41 7 60 10 19 4 48 8 64 10 15 3 35 6 45 9 64 19 101 16 143 -11 24 -15 52
-33 63 -39 51 -28 103 -58 130 -73 17 -10 50 -19 74 -20 25 -1 48 -4 53 -7 4
-3 32 -7 60 -10 29 -2 64 -6 78 -8 14 -2 52 -7 85 -11 33 -4 74 -9 90 -12 17
-2 46 -6 65 -8 76 -8 126 -16 142 -21 16 -5 56 15 84 41 6 5 23 19 38 30 24
17 73 55 176 135 35 27 130 100 170 130 19 14 45 35 60 47 32 27 85 48 170 68
91 22 95 23 95 25 0 1 7 3 15 5 8 1 35 8 60 16 25 7 51 12 58 10 12 -2 15 6
14 49 0 33 -11 378 -18 565 l-5 150 63 23 c35 12 70 24 78 27 8 2 53 18 100
35 246 91 220 87 270 40 15 -13 45 -39 130 -110 14 -12 36 -31 50 -43 14 -12
57 -48 95 -81 39 -32 72 -62 73 -67 2 -5 14 -9 26 -9 13 0 26 -3 29 -7 4 -3
19 -8 33 -9 28 -3 93 -17 298 -65 65 -15 123 -25 130 -23 6 2 33 36 61 76 27
39 58 80 67 90 10 11 20 29 23 39 4 11 10 19 15 19 5 0 19 17 32 37 29 48 44
51 44 10 1 -29 5 -74 18 -177 7 -55 16 -126 21 -177 3 -27 7 -66 10 -88 3 -22
7 -62 10 -90 3 -27 8 -66 11 -85 2 -19 7 -60 10 -90 3 -30 7 -68 10 -85 5 -43
14 -124 18 -167 2 -20 7 -41 10 -47 5 -7 62 -11 167 -11 l159 0 1 48 c1 26 3
76 4 112 9 198 18 475 18 540 0 67 -14 144 -79 430 -3 14 -7 35 -9 47 -2 11
-6 30 -9 41 -9 28 -16 60 -23 104 -3 21 -8 38 -12 38 -3 0 -6 10 -7 23 0 12
-4 36 -8 52 -4 17 -9 44 -12 60 -3 17 -12 57 -21 90 -8 33 -17 74 -20 90 -3
17 -14 66 -25 110 -18 73 -23 99 -27 131 0 6 -13 24 -28 41 -16 16 -53 58 -83
93 -30 35 -62 71 -70 80 -8 10 -35 41 -60 70 -99 116 -96 113 -118 99 -11 -7
-27 -24 -35 -38 -8 -14 -35 -48 -60 -75 l-44 -49 -74 19 c-41 10 -82 19 -91
20 -10 1 -19 2 -20 4 -4 2 -18 5 -103 25 -65 15 -65 15 -61 43 6 31 16 127 21
187 2 22 4 40 5 40 1 0 3 16 5 35 11 116 16 158 20 180 2 14 7 52 10 85 3 33
7 67 9 75 3 8 8 47 11 85 10 96 12 111 20 180 4 33 9 74 10 90 5 47 13 116 19
165 4 25 8 67 10 93 5 48 6 50 191 357 97 161 182 299 266 435 32 52 63 109
67 125 2 8 5 67 6 130 3 108 16 526 21 670 3 87 3 86 18 88 6 1 35 6 62 12 28
6 57 12 65 13 8 1 20 6 26 10 7 4 17 0 24 -8 7 -8 10 -15 6 -15 -3 0 -1 -11 4
-26 6 -14 12 -37 15 -52 3 -15 7 -38 10 -52 3 -14 8 -36 11 -50 2 -14 7 -32
10 -40 3 -8 8 -26 10 -39 4 -21 15 -67 41 -171 3 -14 7 -35 7 -47 1 -13 4 -23
7 -23 4 0 10 -17 13 -37 3 -21 8 -45 10 -53 10 -47 18 -77 23 -90 3 -8 7 -24
8 -35 2 -11 6 -31 9 -45 3 -14 9 -36 12 -50 3 -14 10 -43 15 -65 5 -22 12 -53
14 -68 3 -16 7 -33 11 -38 3 -5 8 -21 10 -36 3 -14 12 -53 20 -87 8 -34 17
-70 19 -81 26 -119 23 -114 99 -163 39 -26 76 -49 81 -52 10 -5 34 -21 270
-175 61 -39 144 -93 185 -120 41 -26 81 -53 89 -59 11 -9 13 -7 7 12 -4 12 -9
32 -10 45 -2 12 -6 29 -9 37 -8 22 -38 139 -44 169 -6 34 -9 43 -16 61 -3 8
-13 44 -22 80 -86 350 -95 379 -143 448 -25 37 -50 69 -54 70 -4 2 -8 8 -8 13
0 5 -7 17 -15 26 -13 16 -88 120 -125 173 -37 53 -112 157 -125 173 -8 9 -15
21 -15 25 0 4 -5 13 -11 19 -7 7 -11 160 -13 464 -2 380 -5 463 -18 509 -9 30
-19 69 -22 85 -3 17 -7 39 -10 50 -10 39 -45 190 -50 215 -2 14 -14 68 -26
120 -11 52 -23 106 -26 120 -3 14 -9 41 -14 60 -5 19 -11 46 -14 60 -2 14 -12
58 -21 99 -9 40 -18 78 -20 85 -8 38 -19 45 -108 61 -51 9 -103 19 -117 22
-14 3 -33 6 -43 7 -25 3 -31 12 -67 96 -18 41 -40 93 -50 115 -17 37 -17 42
-2 68 10 16 24 36 32 45 9 9 55 70 104 135 49 64 93 117 98 117 5 0 6 5 3 10
-3 6 -3 10 2 10 4 0 15 13 24 29 16 28 16 29 -52 137 -38 60 -75 120 -81 134
-7 14 -20 32 -28 41 -14 15 -19 13 -57 -30z"/>
<path d="M4300 7288 c-11 -4 -26 -12 -33 -18 -6 -6 -94 -59 -194 -118 -176
-104 -203 -125 -389 -297 l-54 -50 1 -173 c0 -94 3 -172 7 -172 51 -4 252 -1
259 3 5 3 9 65 8 138 -1 90 3 135 11 143 6 6 114 85 239 176 192 140 255 180
418 263 106 54 195 102 199 106 10 9 -447 8 -472 -1z"/>
<path d="M10325 4651 c3 -5 1 -12 -5 -16 -6 -4 -7 -11 -4 -17 4 -6 8 -30 9
-53 1 -33 14 -60 63 -133 34 -51 62 -96 62 -101 0 -5 4 -11 8 -13 5 -1 50 -66
100 -143 50 -77 96 -145 102 -152 5 -7 10 -15 10 -18 0 -3 5 -11 11 -18 5 -7
67 -97 135 -202 69 -104 127 -192 130 -194 6 -7 181 57 202 74 6 5 -30 65 -39
65 -6 0 -8 4 -5 9 4 5 2 11 -2 13 -5 1 -29 35 -53 73 -24 39 -47 72 -51 73 -4
2 -8 10 -8 18 0 8 -3 14 -8 14 -4 0 -18 20 -32 45 -14 25 -27 45 -31 45 -3 0
-10 9 -15 19 -8 17 -68 83 -259 286 -16 17 -70 75 -120 129 -159 171 -192 206
-199 206 -4 0 -5 -4 -1 -9z"/>
</g>
</svg>
